%TF.GenerationSoftware,KiCad,Pcbnew,9.0.6*%
%TF.CreationDate,2025-11-30T22:40:07-05:00*%
%TF.ProjectId,BMO_Controller_PCB,424d4f5f-436f-46e7-9472-6f6c6c65725f,rev?*%
%TF.SameCoordinates,Original*%
%TF.FileFunction,Copper,L1,Top*%
%TF.FilePolarity,Positive*%
%FSLAX46Y46*%
G04 Gerber Fmt 4.6, Leading zero omitted, Abs format (unit mm)*
G04 Created by KiCad (PCBNEW 9.0.6) date 2025-11-30 22:40:07*
%MOMM*%
%LPD*%
G01*
G04 APERTURE LIST*
G04 Aperture macros list*
%AMRoundRect*
0 Rectangle with rounded corners*
0 $1 Rounding radius*
0 $2 $3 $4 $5 $6 $7 $8 $9 X,Y pos of 4 corners*
0 Add a 4 corners polygon primitive as box body*
4,1,4,$2,$3,$4,$5,$6,$7,$8,$9,$2,$3,0*
0 Add four circle primitives for the rounded corners*
1,1,$1+$1,$2,$3*
1,1,$1+$1,$4,$5*
1,1,$1+$1,$6,$7*
1,1,$1+$1,$8,$9*
0 Add four rect primitives between the rounded corners*
20,1,$1+$1,$2,$3,$4,$5,0*
20,1,$1+$1,$4,$5,$6,$7,0*
20,1,$1+$1,$6,$7,$8,$9,0*
20,1,$1+$1,$8,$9,$2,$3,0*%
G04 Aperture macros list end*
%TA.AperFunction,ComponentPad*%
%ADD10C,2.000000*%
%TD*%
%TA.AperFunction,ComponentPad*%
%ADD11RoundRect,0.250000X1.050000X0.550000X-1.050000X0.550000X-1.050000X-0.550000X1.050000X-0.550000X0*%
%TD*%
%TA.AperFunction,ComponentPad*%
%ADD12O,2.600000X1.600000*%
%TD*%
%TA.AperFunction,Conductor*%
%ADD13C,0.200000*%
%TD*%
G04 APERTURE END LIST*
D10*
%TO.P,SW7,1,1*%
%TO.N,GND*%
X179500000Y-88000000D03*
X186000000Y-88000000D03*
%TO.P,SW7,2,2*%
%TO.N,/Btn_Circle*%
X179500000Y-92500000D03*
X186000000Y-92500000D03*
%TD*%
%TO.P,SW4,1,1*%
%TO.N,GND*%
X88500000Y-85000000D03*
X95000000Y-85000000D03*
%TO.P,SW4,2,2*%
%TO.N,/Btn_Left*%
X88500000Y-89500000D03*
X95000000Y-89500000D03*
%TD*%
%TO.P,SW2,1,1*%
%TO.N,GND*%
X105500000Y-85000000D03*
X112000000Y-85000000D03*
%TO.P,SW2,2,2*%
%TO.N,/Btn_Right*%
X105500000Y-89500000D03*
X112000000Y-89500000D03*
%TD*%
%TO.P,SW3,1,1*%
%TO.N,GND*%
X97000000Y-93000000D03*
X103500000Y-93000000D03*
%TO.P,SW3,2,2*%
%TO.N,/Btn_Down*%
X97000000Y-97500000D03*
X103500000Y-97500000D03*
%TD*%
%TO.P,SW6,1,1*%
%TO.N,GND*%
X156250000Y-107250000D03*
X162750000Y-107250000D03*
%TO.P,SW6,2,2*%
%TO.N,/Btn_Sm_Circle*%
X156250000Y-111750000D03*
X162750000Y-111750000D03*
%TD*%
%TO.P,SW5,1,1*%
%TO.N,GND*%
X150000000Y-82000000D03*
X156500000Y-82000000D03*
%TO.P,SW5,2,2*%
%TO.N,/Btn_Triangle*%
X150000000Y-86500000D03*
X156500000Y-86500000D03*
%TD*%
%TO.P,SW1,1,1*%
%TO.N,GND*%
X97000000Y-77000000D03*
X103500000Y-77000000D03*
%TO.P,SW1,2,2*%
%TO.N,/Btn_Up*%
X97000000Y-81500000D03*
X103500000Y-81500000D03*
%TD*%
D11*
%TO.P,A1,1,~{RESET}*%
%TO.N,unconnected-(A1-~{RESET}-Pad1)*%
X141200000Y-69460000D03*
D12*
%TO.P,A1,2,3V3*%
%TO.N,unconnected-(A1-3V3-Pad2)*%
X141200000Y-72000000D03*
%TO.P,A1,3,AREF*%
%TO.N,unconnected-(A1-AREF-Pad3)*%
X141200000Y-74540000D03*
%TO.P,A1,4,GND*%
%TO.N,GND*%
X141200000Y-77080000D03*
%TO.P,A1,5,A0*%
%TO.N,unconnected-(A1-A0-Pad5)*%
X141200000Y-79620000D03*
%TO.P,A1,6,A1*%
%TO.N,unconnected-(A1-A1-Pad6)*%
X141200000Y-82160000D03*
%TO.P,A1,7,A2*%
%TO.N,unconnected-(A1-A2-Pad7)*%
X141200000Y-84700000D03*
%TO.P,A1,8,A3*%
%TO.N,unconnected-(A1-A3-Pad8)*%
X141200000Y-87240000D03*
%TO.P,A1,9,A4*%
%TO.N,unconnected-(A1-A4-Pad9)*%
X141200000Y-89780000D03*
%TO.P,A1,10,A5*%
%TO.N,unconnected-(A1-A5-Pad10)*%
X141200000Y-92320000D03*
%TO.P,A1,11,SCK*%
%TO.N,unconnected-(A1-SCK-Pad11)*%
X141200000Y-94860000D03*
%TO.P,A1,12,MOSI*%
%TO.N,unconnected-(A1-MOSI-Pad12)*%
X141200000Y-97400000D03*
%TO.P,A1,13,MISO*%
%TO.N,unconnected-(A1-MISO-Pad13)*%
X141200000Y-99940000D03*
%TO.P,A1,14,RX*%
%TO.N,unconnected-(A1-RX-Pad14)*%
X141200000Y-102480000D03*
%TO.P,A1,15,TX*%
%TO.N,unconnected-(A1-TX-Pad15)*%
X141200000Y-105020000D03*
%TO.P,A1,16,SPARE*%
%TO.N,unconnected-(A1-SPARE-Pad16)*%
X141200000Y-107560000D03*
%TO.P,A1,17,SDA*%
%TO.N,unconnected-(A1-SDA-Pad17)*%
X121480000Y-107560000D03*
%TO.P,A1,18,SCL*%
%TO.N,unconnected-(A1-SCL-Pad18)*%
X121480000Y-105020000D03*
%TO.P,A1,19,D0*%
%TO.N,/Btn_Up*%
X121480000Y-102480000D03*
%TO.P,A1,20,D1*%
%TO.N,/Btn_Right*%
X121480000Y-99940000D03*
%TO.P,A1,21,D2*%
%TO.N,/Btn_Down*%
X121480000Y-97400000D03*
%TO.P,A1,22,D3*%
%TO.N,/Btn_Left*%
X121480000Y-94860000D03*
%TO.P,A1,23,D4*%
%TO.N,/Btn_Triangle*%
X121480000Y-92320000D03*
%TO.P,A1,24,D5*%
%TO.N,/Btn_Sm_Circle*%
X121480000Y-89780000D03*
%TO.P,A1,25,D6*%
%TO.N,/Btn_Circle*%
X121480000Y-87240000D03*
%TO.P,A1,26,USB*%
%TO.N,unconnected-(A1-USB-Pad26)*%
X121480000Y-84700000D03*
%TO.P,A1,27,EN*%
%TO.N,unconnected-(A1-EN-Pad27)*%
X121480000Y-82160000D03*
%TO.P,A1,28,VBAT*%
%TO.N,unconnected-(A1-VBAT-Pad28)*%
X121480000Y-79620000D03*
%TD*%
D13*
%TO.N,/Btn_Sm_Circle*%
X119879000Y-92776049D02*
X119879000Y-91081000D01*
X140765049Y-111750000D02*
X122436049Y-93421000D01*
X122436049Y-93421000D02*
X120523951Y-93421000D01*
X119879000Y-91081000D02*
X121180000Y-89780000D01*
X156250000Y-111750000D02*
X140765049Y-111750000D01*
X120523951Y-93421000D02*
X119879000Y-92776049D01*
%TO.N,/Btn_Triangle*%
X127361000Y-86139000D02*
X121180000Y-92320000D01*
X149639000Y-86139000D02*
X127361000Y-86139000D01*
X150000000Y-86500000D02*
X149639000Y-86139000D01*
%TO.N,/Btn_Right*%
X112000000Y-90760000D02*
X121180000Y-99940000D01*
X112000000Y-89500000D02*
X112000000Y-90760000D01*
%TO.N,/Btn_Up*%
X102199000Y-82801000D02*
X102199000Y-93538892D01*
X111140108Y-102480000D02*
X121180000Y-102480000D01*
X103500000Y-81500000D02*
X102199000Y-82801000D01*
X102199000Y-93538892D02*
X111140108Y-102480000D01*
%TO.N,/Btn_Left*%
X101798000Y-93298000D02*
X101798000Y-97637892D01*
X123482000Y-105075049D02*
X123482000Y-97162000D01*
X122436049Y-106121000D02*
X123482000Y-105075049D01*
X98000000Y-89500000D02*
X101798000Y-93298000D01*
X123482000Y-97162000D02*
X121180000Y-94860000D01*
X110281108Y-106121000D02*
X122436049Y-106121000D01*
X101798000Y-97637892D02*
X110281108Y-106121000D01*
X95000000Y-89500000D02*
X98000000Y-89500000D01*
%TO.N,/Btn_Circle*%
X148938892Y-83599000D02*
X124821000Y-83599000D01*
X152500000Y-87160108D02*
X148938892Y-83599000D01*
X162500000Y-109500000D02*
X156660108Y-109500000D01*
X124821000Y-83599000D02*
X121180000Y-87240000D01*
X156660108Y-109500000D02*
X152500000Y-105339892D01*
X152500000Y-105339892D02*
X152500000Y-87160108D01*
X179500000Y-92500000D02*
X162500000Y-109500000D01*
%TO.N,/Btn_Down*%
X122436049Y-103581000D02*
X123081000Y-102936049D01*
X109581000Y-103581000D02*
X122436049Y-103581000D01*
X103500000Y-97500000D02*
X109581000Y-103581000D01*
X123081000Y-102936049D02*
X123081000Y-99301000D01*
X123081000Y-99301000D02*
X121180000Y-97400000D01*
%TO.N,GND*%
X156250000Y-88250000D02*
X150000000Y-82000000D01*
X112000000Y-85000000D02*
X119920000Y-77080000D01*
X108160108Y-85000000D02*
X112000000Y-85000000D01*
X103500000Y-93000000D02*
X103500000Y-89660108D01*
X145080000Y-77080000D02*
X141500000Y-77080000D01*
X150000000Y-82000000D02*
X145080000Y-77080000D01*
X173500000Y-82000000D02*
X150000000Y-82000000D01*
X99660108Y-77000000D02*
X103500000Y-77000000D01*
X141420000Y-77000000D02*
X141500000Y-77080000D01*
X111000000Y-77000000D02*
X141420000Y-77000000D01*
X156250000Y-107250000D02*
X156250000Y-88250000D01*
X179500000Y-88000000D02*
X173500000Y-82000000D01*
X95000000Y-81660108D02*
X99660108Y-77000000D01*
X119920000Y-77080000D02*
X141500000Y-77080000D01*
X95000000Y-85000000D02*
X95000000Y-81660108D01*
X103500000Y-77000000D02*
X111000000Y-77000000D01*
X103500000Y-89660108D02*
X108160108Y-85000000D01*
%TD*%
M02*
