%TF.GenerationSoftware,KiCad,Pcbnew,9.0.6*%
%TF.CreationDate,2025-11-30T22:40:07-05:00*%
%TF.ProjectId,BMO_Controller_PCB,424d4f5f-436f-46e7-9472-6f6c6c65725f,rev?*%
%TF.SameCoordinates,Original*%
%TF.FileFunction,Legend,Bot*%
%TF.FilePolarity,Positive*%
%FSLAX46Y46*%
G04 Gerber Fmt 4.6, Leading zero omitted, Abs format (unit mm)*
G04 Created by KiCad (PCBNEW 9.0.6) date 2025-11-30 22:40:07*
%MOMM*%
%LPD*%
G01*
G04 APERTURE LIST*
G04 Aperture macros list*
%AMRoundRect*
0 Rectangle with rounded corners*
0 $1 Rounding radius*
0 $2 $3 $4 $5 $6 $7 $8 $9 X,Y pos of 4 corners*
0 Add a 4 corners polygon primitive as box body*
4,1,4,$2,$3,$4,$5,$6,$7,$8,$9,$2,$3,0*
0 Add four circle primitives for the rounded corners*
1,1,$1+$1,$2,$3*
1,1,$1+$1,$4,$5*
1,1,$1+$1,$6,$7*
1,1,$1+$1,$8,$9*
0 Add four rect primitives between the rounded corners*
20,1,$1+$1,$2,$3,$4,$5,0*
20,1,$1+$1,$4,$5,$6,$7,0*
20,1,$1+$1,$6,$7,$8,$9,0*
20,1,$1+$1,$8,$9,$2,$3,0*%
G04 Aperture macros list end*
%ADD10C,0.150000*%
%ADD11C,0.120000*%
%ADD12C,3.200000*%
%ADD13C,2.000000*%
%ADD14RoundRect,0.250000X1.050000X0.550000X-1.050000X0.550000X-1.050000X-0.550000X1.050000X-0.550000X0*%
%ADD15O,2.600000X1.600000*%
G04 APERTURE END LIST*
D10*
X132054285Y-62009104D02*
X131578095Y-62009104D01*
X132149523Y-62294819D02*
X131816190Y-61294819D01*
X131816190Y-61294819D02*
X131482857Y-62294819D01*
X130625714Y-62294819D02*
X131197142Y-62294819D01*
X130911428Y-62294819D02*
X130911428Y-61294819D01*
X130911428Y-61294819D02*
X131006666Y-61437676D01*
X131006666Y-61437676D02*
X131101904Y-61532914D01*
X131101904Y-61532914D02*
X131197142Y-61580533D01*
D11*
%TO.C,A1*%
X119800000Y-65650000D02*
X119800000Y-111370000D01*
X122450000Y-63000000D02*
X140230000Y-63000000D01*
X122450000Y-114020000D02*
X140230000Y-114020000D01*
X142880000Y-65650000D02*
X142880000Y-111370000D01*
X143200000Y-70460000D02*
X143200000Y-68460000D01*
X119800000Y-65650000D02*
G75*
G02*
X122450000Y-63000000I2650000J0D01*
G01*
X122450000Y-114020000D02*
G75*
G02*
X119800000Y-111370000I0J2650000D01*
G01*
X140230000Y-63000000D02*
G75*
G02*
X142880000Y-65650000I0J-2650000D01*
G01*
X142880000Y-111370000D02*
G75*
G02*
X140230000Y-114020000I-2650000J0D01*
G01*
%TD*%
%LPC*%
D12*
%TO.C,H4*%
X91500000Y-96500000D03*
%TD*%
%TO.C,H3*%
X91500000Y-78500000D03*
%TD*%
%TO.C,H2*%
X171000000Y-109500000D03*
%TD*%
%TO.C,H1*%
X183000000Y-78000000D03*
%TD*%
D13*
%TO.C,SW7*%
X179500000Y-88000000D03*
X186000000Y-88000000D03*
X179500000Y-92500000D03*
X186000000Y-92500000D03*
%TD*%
%TO.C,SW4*%
X88500000Y-85000000D03*
X95000000Y-85000000D03*
X88500000Y-89500000D03*
X95000000Y-89500000D03*
%TD*%
%TO.C,SW2*%
X105500000Y-85000000D03*
X112000000Y-85000000D03*
X105500000Y-89500000D03*
X112000000Y-89500000D03*
%TD*%
%TO.C,SW3*%
X97000000Y-93000000D03*
X103500000Y-93000000D03*
X97000000Y-97500000D03*
X103500000Y-97500000D03*
%TD*%
%TO.C,SW6*%
X156250000Y-107250000D03*
X162750000Y-107250000D03*
X156250000Y-111750000D03*
X162750000Y-111750000D03*
%TD*%
%TO.C,SW5*%
X150000000Y-82000000D03*
X156500000Y-82000000D03*
X150000000Y-86500000D03*
X156500000Y-86500000D03*
%TD*%
%TO.C,SW1*%
X97000000Y-77000000D03*
X103500000Y-77000000D03*
X97000000Y-81500000D03*
X103500000Y-81500000D03*
%TD*%
D14*
%TO.C,A1*%
X141200000Y-69460000D03*
D15*
X141200000Y-72000000D03*
X141200000Y-74540000D03*
X141200000Y-77080000D03*
X141200000Y-79620000D03*
X141200000Y-82160000D03*
X141200000Y-84700000D03*
X141200000Y-87240000D03*
X141200000Y-89780000D03*
X141200000Y-92320000D03*
X141200000Y-94860000D03*
X141200000Y-97400000D03*
X141200000Y-99940000D03*
X141200000Y-102480000D03*
X141200000Y-105020000D03*
X141200000Y-107560000D03*
X121480000Y-107560000D03*
X121480000Y-105020000D03*
X121480000Y-102480000D03*
X121480000Y-99940000D03*
X121480000Y-97400000D03*
X121480000Y-94860000D03*
X121480000Y-92320000D03*
X121480000Y-89780000D03*
X121480000Y-87240000D03*
X121480000Y-84700000D03*
X121480000Y-82160000D03*
X121480000Y-79620000D03*
%TD*%
%LPD*%
M02*
