%TF.GenerationSoftware,KiCad,Pcbnew,9.0.6*%
%TF.CreationDate,2025-11-30T22:40:07-05:00*%
%TF.ProjectId,BMO_Controller_PCB,424d4f5f-436f-46e7-9472-6f6c6c65725f,rev?*%
%TF.SameCoordinates,Original*%
%TF.FileFunction,Legend,Top*%
%TF.FilePolarity,Positive*%
%FSLAX46Y46*%
G04 Gerber Fmt 4.6, Leading zero omitted, Abs format (unit mm)*
G04 Created by KiCad (PCBNEW 9.0.6) date 2025-11-30 22:40:07*
%MOMM*%
%LPD*%
G01*
G04 APERTURE LIST*
G04 Aperture macros list*
%AMRoundRect*
0 Rectangle with rounded corners*
0 $1 Rounding radius*
0 $2 $3 $4 $5 $6 $7 $8 $9 X,Y pos of 4 corners*
0 Add a 4 corners polygon primitive as box body*
4,1,4,$2,$3,$4,$5,$6,$7,$8,$9,$2,$3,0*
0 Add four circle primitives for the rounded corners*
1,1,$1+$1,$2,$3*
1,1,$1+$1,$4,$5*
1,1,$1+$1,$6,$7*
1,1,$1+$1,$8,$9*
0 Add four rect primitives between the rounded corners*
20,1,$1+$1,$2,$3,$4,$5,0*
20,1,$1+$1,$4,$5,$6,$7,0*
20,1,$1+$1,$6,$7,$8,$9,0*
20,1,$1+$1,$8,$9,$2,$3,0*%
G04 Aperture macros list end*
%ADD10C,0.150000*%
%ADD11C,0.120000*%
%ADD12C,3.200000*%
%ADD13C,2.000000*%
%ADD14RoundRect,0.250000X1.050000X0.550000X-1.050000X0.550000X-1.050000X-0.550000X1.050000X-0.550000X0*%
%ADD15O,2.600000X1.600000*%
G04 APERTURE END LIST*
D10*
X90738095Y-92804819D02*
X90738095Y-91804819D01*
X90738095Y-92281009D02*
X91309523Y-92281009D01*
X91309523Y-92804819D02*
X91309523Y-91804819D01*
X92214285Y-92138152D02*
X92214285Y-92804819D01*
X91976190Y-91757200D02*
X91738095Y-92471485D01*
X91738095Y-92471485D02*
X92357142Y-92471485D01*
X90738095Y-74804819D02*
X90738095Y-73804819D01*
X90738095Y-74281009D02*
X91309523Y-74281009D01*
X91309523Y-74804819D02*
X91309523Y-73804819D01*
X91690476Y-73804819D02*
X92309523Y-73804819D01*
X92309523Y-73804819D02*
X91976190Y-74185771D01*
X91976190Y-74185771D02*
X92119047Y-74185771D01*
X92119047Y-74185771D02*
X92214285Y-74233390D01*
X92214285Y-74233390D02*
X92261904Y-74281009D01*
X92261904Y-74281009D02*
X92309523Y-74376247D01*
X92309523Y-74376247D02*
X92309523Y-74614342D01*
X92309523Y-74614342D02*
X92261904Y-74709580D01*
X92261904Y-74709580D02*
X92214285Y-74757200D01*
X92214285Y-74757200D02*
X92119047Y-74804819D01*
X92119047Y-74804819D02*
X91833333Y-74804819D01*
X91833333Y-74804819D02*
X91738095Y-74757200D01*
X91738095Y-74757200D02*
X91690476Y-74709580D01*
X170238095Y-105804819D02*
X170238095Y-104804819D01*
X170238095Y-105281009D02*
X170809523Y-105281009D01*
X170809523Y-105804819D02*
X170809523Y-104804819D01*
X171238095Y-104900057D02*
X171285714Y-104852438D01*
X171285714Y-104852438D02*
X171380952Y-104804819D01*
X171380952Y-104804819D02*
X171619047Y-104804819D01*
X171619047Y-104804819D02*
X171714285Y-104852438D01*
X171714285Y-104852438D02*
X171761904Y-104900057D01*
X171761904Y-104900057D02*
X171809523Y-104995295D01*
X171809523Y-104995295D02*
X171809523Y-105090533D01*
X171809523Y-105090533D02*
X171761904Y-105233390D01*
X171761904Y-105233390D02*
X171190476Y-105804819D01*
X171190476Y-105804819D02*
X171809523Y-105804819D01*
X182238095Y-74304819D02*
X182238095Y-73304819D01*
X182238095Y-73781009D02*
X182809523Y-73781009D01*
X182809523Y-74304819D02*
X182809523Y-73304819D01*
X183809523Y-74304819D02*
X183238095Y-74304819D01*
X183523809Y-74304819D02*
X183523809Y-73304819D01*
X183523809Y-73304819D02*
X183428571Y-73447676D01*
X183428571Y-73447676D02*
X183333333Y-73542914D01*
X183333333Y-73542914D02*
X183238095Y-73590533D01*
X181416667Y-86407200D02*
X181559524Y-86454819D01*
X181559524Y-86454819D02*
X181797619Y-86454819D01*
X181797619Y-86454819D02*
X181892857Y-86407200D01*
X181892857Y-86407200D02*
X181940476Y-86359580D01*
X181940476Y-86359580D02*
X181988095Y-86264342D01*
X181988095Y-86264342D02*
X181988095Y-86169104D01*
X181988095Y-86169104D02*
X181940476Y-86073866D01*
X181940476Y-86073866D02*
X181892857Y-86026247D01*
X181892857Y-86026247D02*
X181797619Y-85978628D01*
X181797619Y-85978628D02*
X181607143Y-85931009D01*
X181607143Y-85931009D02*
X181511905Y-85883390D01*
X181511905Y-85883390D02*
X181464286Y-85835771D01*
X181464286Y-85835771D02*
X181416667Y-85740533D01*
X181416667Y-85740533D02*
X181416667Y-85645295D01*
X181416667Y-85645295D02*
X181464286Y-85550057D01*
X181464286Y-85550057D02*
X181511905Y-85502438D01*
X181511905Y-85502438D02*
X181607143Y-85454819D01*
X181607143Y-85454819D02*
X181845238Y-85454819D01*
X181845238Y-85454819D02*
X181988095Y-85502438D01*
X182321429Y-85454819D02*
X182559524Y-86454819D01*
X182559524Y-86454819D02*
X182750000Y-85740533D01*
X182750000Y-85740533D02*
X182940476Y-86454819D01*
X182940476Y-86454819D02*
X183178572Y-85454819D01*
X183464286Y-85454819D02*
X184130952Y-85454819D01*
X184130952Y-85454819D02*
X183702381Y-86454819D01*
X90416667Y-83407200D02*
X90559524Y-83454819D01*
X90559524Y-83454819D02*
X90797619Y-83454819D01*
X90797619Y-83454819D02*
X90892857Y-83407200D01*
X90892857Y-83407200D02*
X90940476Y-83359580D01*
X90940476Y-83359580D02*
X90988095Y-83264342D01*
X90988095Y-83264342D02*
X90988095Y-83169104D01*
X90988095Y-83169104D02*
X90940476Y-83073866D01*
X90940476Y-83073866D02*
X90892857Y-83026247D01*
X90892857Y-83026247D02*
X90797619Y-82978628D01*
X90797619Y-82978628D02*
X90607143Y-82931009D01*
X90607143Y-82931009D02*
X90511905Y-82883390D01*
X90511905Y-82883390D02*
X90464286Y-82835771D01*
X90464286Y-82835771D02*
X90416667Y-82740533D01*
X90416667Y-82740533D02*
X90416667Y-82645295D01*
X90416667Y-82645295D02*
X90464286Y-82550057D01*
X90464286Y-82550057D02*
X90511905Y-82502438D01*
X90511905Y-82502438D02*
X90607143Y-82454819D01*
X90607143Y-82454819D02*
X90845238Y-82454819D01*
X90845238Y-82454819D02*
X90988095Y-82502438D01*
X91321429Y-82454819D02*
X91559524Y-83454819D01*
X91559524Y-83454819D02*
X91750000Y-82740533D01*
X91750000Y-82740533D02*
X91940476Y-83454819D01*
X91940476Y-83454819D02*
X92178572Y-82454819D01*
X92988095Y-82788152D02*
X92988095Y-83454819D01*
X92750000Y-82407200D02*
X92511905Y-83121485D01*
X92511905Y-83121485D02*
X93130952Y-83121485D01*
X107416667Y-83407200D02*
X107559524Y-83454819D01*
X107559524Y-83454819D02*
X107797619Y-83454819D01*
X107797619Y-83454819D02*
X107892857Y-83407200D01*
X107892857Y-83407200D02*
X107940476Y-83359580D01*
X107940476Y-83359580D02*
X107988095Y-83264342D01*
X107988095Y-83264342D02*
X107988095Y-83169104D01*
X107988095Y-83169104D02*
X107940476Y-83073866D01*
X107940476Y-83073866D02*
X107892857Y-83026247D01*
X107892857Y-83026247D02*
X107797619Y-82978628D01*
X107797619Y-82978628D02*
X107607143Y-82931009D01*
X107607143Y-82931009D02*
X107511905Y-82883390D01*
X107511905Y-82883390D02*
X107464286Y-82835771D01*
X107464286Y-82835771D02*
X107416667Y-82740533D01*
X107416667Y-82740533D02*
X107416667Y-82645295D01*
X107416667Y-82645295D02*
X107464286Y-82550057D01*
X107464286Y-82550057D02*
X107511905Y-82502438D01*
X107511905Y-82502438D02*
X107607143Y-82454819D01*
X107607143Y-82454819D02*
X107845238Y-82454819D01*
X107845238Y-82454819D02*
X107988095Y-82502438D01*
X108321429Y-82454819D02*
X108559524Y-83454819D01*
X108559524Y-83454819D02*
X108750000Y-82740533D01*
X108750000Y-82740533D02*
X108940476Y-83454819D01*
X108940476Y-83454819D02*
X109178572Y-82454819D01*
X109511905Y-82550057D02*
X109559524Y-82502438D01*
X109559524Y-82502438D02*
X109654762Y-82454819D01*
X109654762Y-82454819D02*
X109892857Y-82454819D01*
X109892857Y-82454819D02*
X109988095Y-82502438D01*
X109988095Y-82502438D02*
X110035714Y-82550057D01*
X110035714Y-82550057D02*
X110083333Y-82645295D01*
X110083333Y-82645295D02*
X110083333Y-82740533D01*
X110083333Y-82740533D02*
X110035714Y-82883390D01*
X110035714Y-82883390D02*
X109464286Y-83454819D01*
X109464286Y-83454819D02*
X110083333Y-83454819D01*
X98916667Y-91407200D02*
X99059524Y-91454819D01*
X99059524Y-91454819D02*
X99297619Y-91454819D01*
X99297619Y-91454819D02*
X99392857Y-91407200D01*
X99392857Y-91407200D02*
X99440476Y-91359580D01*
X99440476Y-91359580D02*
X99488095Y-91264342D01*
X99488095Y-91264342D02*
X99488095Y-91169104D01*
X99488095Y-91169104D02*
X99440476Y-91073866D01*
X99440476Y-91073866D02*
X99392857Y-91026247D01*
X99392857Y-91026247D02*
X99297619Y-90978628D01*
X99297619Y-90978628D02*
X99107143Y-90931009D01*
X99107143Y-90931009D02*
X99011905Y-90883390D01*
X99011905Y-90883390D02*
X98964286Y-90835771D01*
X98964286Y-90835771D02*
X98916667Y-90740533D01*
X98916667Y-90740533D02*
X98916667Y-90645295D01*
X98916667Y-90645295D02*
X98964286Y-90550057D01*
X98964286Y-90550057D02*
X99011905Y-90502438D01*
X99011905Y-90502438D02*
X99107143Y-90454819D01*
X99107143Y-90454819D02*
X99345238Y-90454819D01*
X99345238Y-90454819D02*
X99488095Y-90502438D01*
X99821429Y-90454819D02*
X100059524Y-91454819D01*
X100059524Y-91454819D02*
X100250000Y-90740533D01*
X100250000Y-90740533D02*
X100440476Y-91454819D01*
X100440476Y-91454819D02*
X100678572Y-90454819D01*
X100964286Y-90454819D02*
X101583333Y-90454819D01*
X101583333Y-90454819D02*
X101250000Y-90835771D01*
X101250000Y-90835771D02*
X101392857Y-90835771D01*
X101392857Y-90835771D02*
X101488095Y-90883390D01*
X101488095Y-90883390D02*
X101535714Y-90931009D01*
X101535714Y-90931009D02*
X101583333Y-91026247D01*
X101583333Y-91026247D02*
X101583333Y-91264342D01*
X101583333Y-91264342D02*
X101535714Y-91359580D01*
X101535714Y-91359580D02*
X101488095Y-91407200D01*
X101488095Y-91407200D02*
X101392857Y-91454819D01*
X101392857Y-91454819D02*
X101107143Y-91454819D01*
X101107143Y-91454819D02*
X101011905Y-91407200D01*
X101011905Y-91407200D02*
X100964286Y-91359580D01*
X158166667Y-105657200D02*
X158309524Y-105704819D01*
X158309524Y-105704819D02*
X158547619Y-105704819D01*
X158547619Y-105704819D02*
X158642857Y-105657200D01*
X158642857Y-105657200D02*
X158690476Y-105609580D01*
X158690476Y-105609580D02*
X158738095Y-105514342D01*
X158738095Y-105514342D02*
X158738095Y-105419104D01*
X158738095Y-105419104D02*
X158690476Y-105323866D01*
X158690476Y-105323866D02*
X158642857Y-105276247D01*
X158642857Y-105276247D02*
X158547619Y-105228628D01*
X158547619Y-105228628D02*
X158357143Y-105181009D01*
X158357143Y-105181009D02*
X158261905Y-105133390D01*
X158261905Y-105133390D02*
X158214286Y-105085771D01*
X158214286Y-105085771D02*
X158166667Y-104990533D01*
X158166667Y-104990533D02*
X158166667Y-104895295D01*
X158166667Y-104895295D02*
X158214286Y-104800057D01*
X158214286Y-104800057D02*
X158261905Y-104752438D01*
X158261905Y-104752438D02*
X158357143Y-104704819D01*
X158357143Y-104704819D02*
X158595238Y-104704819D01*
X158595238Y-104704819D02*
X158738095Y-104752438D01*
X159071429Y-104704819D02*
X159309524Y-105704819D01*
X159309524Y-105704819D02*
X159500000Y-104990533D01*
X159500000Y-104990533D02*
X159690476Y-105704819D01*
X159690476Y-105704819D02*
X159928572Y-104704819D01*
X160738095Y-104704819D02*
X160547619Y-104704819D01*
X160547619Y-104704819D02*
X160452381Y-104752438D01*
X160452381Y-104752438D02*
X160404762Y-104800057D01*
X160404762Y-104800057D02*
X160309524Y-104942914D01*
X160309524Y-104942914D02*
X160261905Y-105133390D01*
X160261905Y-105133390D02*
X160261905Y-105514342D01*
X160261905Y-105514342D02*
X160309524Y-105609580D01*
X160309524Y-105609580D02*
X160357143Y-105657200D01*
X160357143Y-105657200D02*
X160452381Y-105704819D01*
X160452381Y-105704819D02*
X160642857Y-105704819D01*
X160642857Y-105704819D02*
X160738095Y-105657200D01*
X160738095Y-105657200D02*
X160785714Y-105609580D01*
X160785714Y-105609580D02*
X160833333Y-105514342D01*
X160833333Y-105514342D02*
X160833333Y-105276247D01*
X160833333Y-105276247D02*
X160785714Y-105181009D01*
X160785714Y-105181009D02*
X160738095Y-105133390D01*
X160738095Y-105133390D02*
X160642857Y-105085771D01*
X160642857Y-105085771D02*
X160452381Y-105085771D01*
X160452381Y-105085771D02*
X160357143Y-105133390D01*
X160357143Y-105133390D02*
X160309524Y-105181009D01*
X160309524Y-105181009D02*
X160261905Y-105276247D01*
X151916667Y-80407200D02*
X152059524Y-80454819D01*
X152059524Y-80454819D02*
X152297619Y-80454819D01*
X152297619Y-80454819D02*
X152392857Y-80407200D01*
X152392857Y-80407200D02*
X152440476Y-80359580D01*
X152440476Y-80359580D02*
X152488095Y-80264342D01*
X152488095Y-80264342D02*
X152488095Y-80169104D01*
X152488095Y-80169104D02*
X152440476Y-80073866D01*
X152440476Y-80073866D02*
X152392857Y-80026247D01*
X152392857Y-80026247D02*
X152297619Y-79978628D01*
X152297619Y-79978628D02*
X152107143Y-79931009D01*
X152107143Y-79931009D02*
X152011905Y-79883390D01*
X152011905Y-79883390D02*
X151964286Y-79835771D01*
X151964286Y-79835771D02*
X151916667Y-79740533D01*
X151916667Y-79740533D02*
X151916667Y-79645295D01*
X151916667Y-79645295D02*
X151964286Y-79550057D01*
X151964286Y-79550057D02*
X152011905Y-79502438D01*
X152011905Y-79502438D02*
X152107143Y-79454819D01*
X152107143Y-79454819D02*
X152345238Y-79454819D01*
X152345238Y-79454819D02*
X152488095Y-79502438D01*
X152821429Y-79454819D02*
X153059524Y-80454819D01*
X153059524Y-80454819D02*
X153250000Y-79740533D01*
X153250000Y-79740533D02*
X153440476Y-80454819D01*
X153440476Y-80454819D02*
X153678572Y-79454819D01*
X154535714Y-79454819D02*
X154059524Y-79454819D01*
X154059524Y-79454819D02*
X154011905Y-79931009D01*
X154011905Y-79931009D02*
X154059524Y-79883390D01*
X154059524Y-79883390D02*
X154154762Y-79835771D01*
X154154762Y-79835771D02*
X154392857Y-79835771D01*
X154392857Y-79835771D02*
X154488095Y-79883390D01*
X154488095Y-79883390D02*
X154535714Y-79931009D01*
X154535714Y-79931009D02*
X154583333Y-80026247D01*
X154583333Y-80026247D02*
X154583333Y-80264342D01*
X154583333Y-80264342D02*
X154535714Y-80359580D01*
X154535714Y-80359580D02*
X154488095Y-80407200D01*
X154488095Y-80407200D02*
X154392857Y-80454819D01*
X154392857Y-80454819D02*
X154154762Y-80454819D01*
X154154762Y-80454819D02*
X154059524Y-80407200D01*
X154059524Y-80407200D02*
X154011905Y-80359580D01*
X98916667Y-75407200D02*
X99059524Y-75454819D01*
X99059524Y-75454819D02*
X99297619Y-75454819D01*
X99297619Y-75454819D02*
X99392857Y-75407200D01*
X99392857Y-75407200D02*
X99440476Y-75359580D01*
X99440476Y-75359580D02*
X99488095Y-75264342D01*
X99488095Y-75264342D02*
X99488095Y-75169104D01*
X99488095Y-75169104D02*
X99440476Y-75073866D01*
X99440476Y-75073866D02*
X99392857Y-75026247D01*
X99392857Y-75026247D02*
X99297619Y-74978628D01*
X99297619Y-74978628D02*
X99107143Y-74931009D01*
X99107143Y-74931009D02*
X99011905Y-74883390D01*
X99011905Y-74883390D02*
X98964286Y-74835771D01*
X98964286Y-74835771D02*
X98916667Y-74740533D01*
X98916667Y-74740533D02*
X98916667Y-74645295D01*
X98916667Y-74645295D02*
X98964286Y-74550057D01*
X98964286Y-74550057D02*
X99011905Y-74502438D01*
X99011905Y-74502438D02*
X99107143Y-74454819D01*
X99107143Y-74454819D02*
X99345238Y-74454819D01*
X99345238Y-74454819D02*
X99488095Y-74502438D01*
X99821429Y-74454819D02*
X100059524Y-75454819D01*
X100059524Y-75454819D02*
X100250000Y-74740533D01*
X100250000Y-74740533D02*
X100440476Y-75454819D01*
X100440476Y-75454819D02*
X100678572Y-74454819D01*
X101583333Y-75454819D02*
X101011905Y-75454819D01*
X101297619Y-75454819D02*
X101297619Y-74454819D01*
X101297619Y-74454819D02*
X101202381Y-74597676D01*
X101202381Y-74597676D02*
X101107143Y-74692914D01*
X101107143Y-74692914D02*
X101011905Y-74740533D01*
D11*
%TO.C,SW7*%
X179250000Y-89500000D02*
X179250000Y-91000000D01*
X180500000Y-93500000D02*
X185000000Y-93500000D01*
X185000000Y-87000000D02*
X180500000Y-87000000D01*
X186250000Y-91000000D02*
X186250000Y-89500000D01*
%TO.C,SW4*%
X88250000Y-86500000D02*
X88250000Y-88000000D01*
X89500000Y-90500000D02*
X94000000Y-90500000D01*
X94000000Y-84000000D02*
X89500000Y-84000000D01*
X95250000Y-88000000D02*
X95250000Y-86500000D01*
%TO.C,SW2*%
X105250000Y-86500000D02*
X105250000Y-88000000D01*
X106500000Y-90500000D02*
X111000000Y-90500000D01*
X111000000Y-84000000D02*
X106500000Y-84000000D01*
X112250000Y-88000000D02*
X112250000Y-86500000D01*
%TO.C,SW3*%
X96750000Y-94500000D02*
X96750000Y-96000000D01*
X98000000Y-98500000D02*
X102500000Y-98500000D01*
X102500000Y-92000000D02*
X98000000Y-92000000D01*
X103750000Y-96000000D02*
X103750000Y-94500000D01*
%TO.C,SW6*%
X156000000Y-108750000D02*
X156000000Y-110250000D01*
X157250000Y-112750000D02*
X161750000Y-112750000D01*
X161750000Y-106250000D02*
X157250000Y-106250000D01*
X163000000Y-110250000D02*
X163000000Y-108750000D01*
%TO.C,SW5*%
X149750000Y-83500000D02*
X149750000Y-85000000D01*
X151000000Y-87500000D02*
X155500000Y-87500000D01*
X155500000Y-81000000D02*
X151000000Y-81000000D01*
X156750000Y-85000000D02*
X156750000Y-83500000D01*
%TO.C,SW1*%
X96750000Y-78500000D02*
X96750000Y-80000000D01*
X98000000Y-82500000D02*
X102500000Y-82500000D01*
X102500000Y-76000000D02*
X98000000Y-76000000D01*
X103750000Y-80000000D02*
X103750000Y-78500000D01*
%TD*%
%LPC*%
D12*
%TO.C,H4*%
X91500000Y-96500000D03*
%TD*%
%TO.C,H3*%
X91500000Y-78500000D03*
%TD*%
%TO.C,H2*%
X171000000Y-109500000D03*
%TD*%
%TO.C,H1*%
X183000000Y-78000000D03*
%TD*%
D13*
%TO.C,SW7*%
X179500000Y-88000000D03*
X186000000Y-88000000D03*
X179500000Y-92500000D03*
X186000000Y-92500000D03*
%TD*%
%TO.C,SW4*%
X88500000Y-85000000D03*
X95000000Y-85000000D03*
X88500000Y-89500000D03*
X95000000Y-89500000D03*
%TD*%
%TO.C,SW2*%
X105500000Y-85000000D03*
X112000000Y-85000000D03*
X105500000Y-89500000D03*
X112000000Y-89500000D03*
%TD*%
%TO.C,SW3*%
X97000000Y-93000000D03*
X103500000Y-93000000D03*
X97000000Y-97500000D03*
X103500000Y-97500000D03*
%TD*%
%TO.C,SW6*%
X156250000Y-107250000D03*
X162750000Y-107250000D03*
X156250000Y-111750000D03*
X162750000Y-111750000D03*
%TD*%
%TO.C,SW5*%
X150000000Y-82000000D03*
X156500000Y-82000000D03*
X150000000Y-86500000D03*
X156500000Y-86500000D03*
%TD*%
%TO.C,SW1*%
X97000000Y-77000000D03*
X103500000Y-77000000D03*
X97000000Y-81500000D03*
X103500000Y-81500000D03*
%TD*%
D14*
%TO.C,A1*%
X141200000Y-69460000D03*
D15*
X141200000Y-72000000D03*
X141200000Y-74540000D03*
X141200000Y-77080000D03*
X141200000Y-79620000D03*
X141200000Y-82160000D03*
X141200000Y-84700000D03*
X141200000Y-87240000D03*
X141200000Y-89780000D03*
X141200000Y-92320000D03*
X141200000Y-94860000D03*
X141200000Y-97400000D03*
X141200000Y-99940000D03*
X141200000Y-102480000D03*
X141200000Y-105020000D03*
X141200000Y-107560000D03*
X121480000Y-107560000D03*
X121480000Y-105020000D03*
X121480000Y-102480000D03*
X121480000Y-99940000D03*
X121480000Y-97400000D03*
X121480000Y-94860000D03*
X121480000Y-92320000D03*
X121480000Y-89780000D03*
X121480000Y-87240000D03*
X121480000Y-84700000D03*
X121480000Y-82160000D03*
X121480000Y-79620000D03*
%TD*%
%LPD*%
M02*
