M48
; DRILL file {KiCad 9.0.6} date 2025-11-30T22:40:07-0500
; FORMAT={-:-/ absolute / inch / decimal}
; #@! TF.CreationDate,2025-11-30T22:40:07-05:00
; #@! TF.GenerationSoftware,Kicad,Pcbnew,9.0.6
; #@! TF.FileFunction,Plated,1,2,PTH
FMAT,2
INCH
; #@! TA.AperFunction,Plated,PTH,ComponentDrill
T1C0.0394
; #@! TA.AperFunction,Plated,PTH,ComponentDrill
T2C0.0433
%
G90
G05
T1
X4.7709Y-3.1346
X4.7709Y-3.2346
X4.7709Y-3.3346
X4.7709Y-3.4346
X4.7709Y-3.5346
X4.7709Y-3.6346
X4.7709Y-3.7346
X4.7709Y-3.8346
X4.7709Y-3.9346
X4.7709Y-4.0346
X4.7709Y-4.1346
X4.7709Y-4.2346
X5.5709Y-2.7346
X5.5709Y-2.8346
X5.5709Y-2.9346
X5.5709Y-3.0346
X5.5709Y-3.1346
X5.5709Y-3.2346
X5.5709Y-3.3346
X5.5709Y-3.4346
X5.5709Y-3.5346
X5.5709Y-3.6346
X5.5709Y-3.7346
X5.5709Y-3.8346
X5.5709Y-3.9346
X5.5709Y-4.0346
X5.5709Y-4.1346
X5.5709Y-4.2346
T2
X3.4843Y-3.3465
X3.4843Y-3.5236
X3.7402Y-3.3465
X3.7402Y-3.5236
X3.8189Y-3.0315
X3.8189Y-3.2087
X3.8189Y-3.6614
X3.8189Y-3.8386
X4.0748Y-3.0315
X4.0748Y-3.2087
X4.0748Y-3.6614
X4.0748Y-3.8386
X4.1535Y-3.3465
X4.1535Y-3.5236
X4.4094Y-3.3465
X4.4094Y-3.5236
X5.9055Y-3.2283
X5.9055Y-3.4055
X6.1516Y-4.2224
X6.1516Y-4.3996
X6.1614Y-3.2283
X6.1614Y-3.4055
X6.4075Y-4.2224
X6.4075Y-4.3996
X7.0669Y-3.4646
X7.0669Y-3.6417
X7.3228Y-3.4646
X7.3228Y-3.6417
M30
